<mxfile host="app.diagrams.net" agent="Mozilla/5.0 (Macintosh; Intel Mac OS X 10_15_7) AppleWebKit/605.1.15 (KHTML, like Gecko) Version/18.5 Safari/605.1.15" version="27.1.1">
  <diagram name="Page-1" id="-WR8DfkSUxg_KBe9YU5m">
    <mxGraphModel dx="4283" dy="1524" grid="1" gridSize="10" guides="1" tooltips="1" connect="1" arrows="1" fold="1" page="1" pageScale="1" pageWidth="850" pageHeight="1100" math="0" shadow="0">
      <root>
        <mxCell id="0" />
        <mxCell id="1" parent="0" />
        <mxCell id="0SsIEOhFhzTk_DGAFsbN-10" value="" style="edgeStyle=none;curved=1;rounded=0;orthogonalLoop=1;jettySize=auto;html=1;fontSize=12;startSize=8;endSize=8;entryX=0.5;entryY=0;entryDx=0;entryDy=0;exitX=0.5;exitY=1;exitDx=0;exitDy=0;fillColor=#ffe6cc;strokeColor=#d79b00;" edge="1" parent="1" source="0SsIEOhFhzTk_DGAFsbN-2" target="0SsIEOhFhzTk_DGAFsbN-9">
          <mxGeometry relative="1" as="geometry" />
        </mxCell>
        <mxCell id="0SsIEOhFhzTk_DGAFsbN-14" value="" style="edgeStyle=none;curved=1;rounded=0;orthogonalLoop=1;jettySize=auto;html=1;fontSize=12;startSize=8;endSize=8;entryX=0.5;entryY=0;entryDx=0;entryDy=0;exitX=0.5;exitY=1;exitDx=0;exitDy=0;fillColor=#d5e8d4;strokeColor=#82b366;" edge="1" parent="1" source="0SsIEOhFhzTk_DGAFsbN-2" target="0SsIEOhFhzTk_DGAFsbN-13">
          <mxGeometry relative="1" as="geometry" />
        </mxCell>
        <mxCell id="0SsIEOhFhzTk_DGAFsbN-16" value="" style="edgeStyle=none;curved=1;rounded=0;orthogonalLoop=1;jettySize=auto;html=1;fontSize=12;startSize=8;endSize=8;exitX=0.5;exitY=1;exitDx=0;exitDy=0;flowAnimation=0;fillColor=#dae8fc;strokeColor=#6c8ebf;" edge="1" parent="1" source="0SsIEOhFhzTk_DGAFsbN-2" target="0SsIEOhFhzTk_DGAFsbN-15">
          <mxGeometry relative="1" as="geometry" />
        </mxCell>
        <mxCell id="0SsIEOhFhzTk_DGAFsbN-18" value="" style="edgeStyle=none;curved=1;rounded=0;orthogonalLoop=1;jettySize=auto;html=1;fontSize=12;startSize=8;endSize=8;entryX=0.5;entryY=0;entryDx=0;entryDy=0;exitX=0.5;exitY=1;exitDx=0;exitDy=0;fillColor=#f5f5f5;strokeColor=#666666;" edge="1" parent="1" source="0SsIEOhFhzTk_DGAFsbN-2" target="0SsIEOhFhzTk_DGAFsbN-17">
          <mxGeometry relative="1" as="geometry" />
        </mxCell>
        <mxCell id="0SsIEOhFhzTk_DGAFsbN-20" value="" style="edgeStyle=none;curved=1;rounded=0;orthogonalLoop=1;jettySize=auto;html=1;fontSize=12;startSize=8;endSize=8;entryX=0.5;entryY=0;entryDx=0;entryDy=0;exitX=0.5;exitY=1;exitDx=0;exitDy=0;fillColor=#f5f5f5;strokeColor=#666666;" edge="1" parent="1" source="0SsIEOhFhzTk_DGAFsbN-2" target="0SsIEOhFhzTk_DGAFsbN-19">
          <mxGeometry relative="1" as="geometry" />
        </mxCell>
        <mxCell id="0SsIEOhFhzTk_DGAFsbN-2" value="ContentView" style="whiteSpace=wrap;html=1;rounded=0;fillColor=#f8cecc;strokeColor=#b85450;" vertex="1" parent="1">
          <mxGeometry x="370" y="430" width="120" height="50" as="geometry" />
        </mxCell>
        <mxCell id="0SsIEOhFhzTk_DGAFsbN-73" value="" style="edgeStyle=none;curved=1;rounded=0;orthogonalLoop=1;jettySize=auto;html=1;fontSize=12;startSize=8;endSize=8;exitX=0.5;exitY=1;exitDx=0;exitDy=0;entryX=0.5;entryY=0;entryDx=0;entryDy=0;fillColor=#ffe6cc;strokeColor=#d79b00;" edge="1" parent="1" source="0SsIEOhFhzTk_DGAFsbN-9" target="0SsIEOhFhzTk_DGAFsbN-72">
          <mxGeometry relative="1" as="geometry" />
        </mxCell>
        <mxCell id="0SsIEOhFhzTk_DGAFsbN-75" value="" style="edgeStyle=none;curved=1;rounded=0;orthogonalLoop=1;jettySize=auto;html=1;fontSize=12;startSize=8;endSize=8;exitX=0.5;exitY=1;exitDx=0;exitDy=0;entryX=0.5;entryY=0;entryDx=0;entryDy=0;fillColor=#ffe6cc;strokeColor=#d79b00;" edge="1" parent="1" source="0SsIEOhFhzTk_DGAFsbN-9" target="0SsIEOhFhzTk_DGAFsbN-74">
          <mxGeometry relative="1" as="geometry" />
        </mxCell>
        <mxCell id="0SsIEOhFhzTk_DGAFsbN-79" value="" style="edgeStyle=none;curved=1;rounded=0;orthogonalLoop=1;jettySize=auto;html=1;fontSize=12;startSize=8;endSize=8;exitX=0.5;exitY=1;exitDx=0;exitDy=0;entryX=0.5;entryY=0;entryDx=0;entryDy=0;fillColor=#ffe6cc;strokeColor=#d79b00;" edge="1" parent="1" source="0SsIEOhFhzTk_DGAFsbN-9" target="0SsIEOhFhzTk_DGAFsbN-78">
          <mxGeometry relative="1" as="geometry" />
        </mxCell>
        <mxCell id="0SsIEOhFhzTk_DGAFsbN-81" value="" style="edgeStyle=none;curved=1;rounded=0;orthogonalLoop=1;jettySize=auto;html=1;fontSize=12;startSize=8;endSize=8;exitX=0.5;exitY=1;exitDx=0;exitDy=0;entryX=0.5;entryY=0;entryDx=0;entryDy=0;fillColor=#ffe6cc;strokeColor=#d79b00;" edge="1" parent="1" source="0SsIEOhFhzTk_DGAFsbN-9" target="0SsIEOhFhzTk_DGAFsbN-80">
          <mxGeometry relative="1" as="geometry" />
        </mxCell>
        <mxCell id="0SsIEOhFhzTk_DGAFsbN-9" value="SettingsView" style="whiteSpace=wrap;html=1;rounded=0;fillColor=#ffe6cc;strokeColor=#d79b00;" vertex="1" parent="1">
          <mxGeometry x="1120" y="680" width="120" height="50" as="geometry" />
        </mxCell>
        <mxCell id="0SsIEOhFhzTk_DGAFsbN-30" value="" style="edgeStyle=none;curved=1;rounded=0;orthogonalLoop=1;jettySize=auto;html=1;fontSize=12;startSize=8;endSize=8;exitX=0.5;exitY=1;exitDx=0;exitDy=0;fillColor=#d5e8d4;strokeColor=#82b366;" edge="1" parent="1" source="0SsIEOhFhzTk_DGAFsbN-13" target="0SsIEOhFhzTk_DGAFsbN-29">
          <mxGeometry relative="1" as="geometry" />
        </mxCell>
        <mxCell id="0SsIEOhFhzTk_DGAFsbN-32" value="" style="edgeStyle=none;curved=1;rounded=0;orthogonalLoop=1;jettySize=auto;html=1;fontSize=12;startSize=8;endSize=8;entryX=0.5;entryY=0;entryDx=0;entryDy=0;exitX=0.5;exitY=1;exitDx=0;exitDy=0;fillColor=#d5e8d4;strokeColor=#82b366;" edge="1" parent="1" source="0SsIEOhFhzTk_DGAFsbN-13" target="0SsIEOhFhzTk_DGAFsbN-31">
          <mxGeometry relative="1" as="geometry">
            <mxPoint x="-143" y="900" as="targetPoint" />
          </mxGeometry>
        </mxCell>
        <mxCell id="0SsIEOhFhzTk_DGAFsbN-34" value="" style="edgeStyle=none;curved=1;rounded=0;orthogonalLoop=1;jettySize=auto;html=1;fontSize=12;startSize=8;endSize=8;exitX=0.5;exitY=1;exitDx=0;exitDy=0;fillColor=#d5e8d4;strokeColor=#82b366;" edge="1" parent="1" source="0SsIEOhFhzTk_DGAFsbN-13" target="0SsIEOhFhzTk_DGAFsbN-33">
          <mxGeometry relative="1" as="geometry" />
        </mxCell>
        <mxCell id="0SsIEOhFhzTk_DGAFsbN-13" value="DiscoverView" style="whiteSpace=wrap;html=1;rounded=0;fillColor=#d5e8d4;strokeColor=#82b366;" vertex="1" parent="1">
          <mxGeometry x="-380" y="690" width="120" height="50" as="geometry" />
        </mxCell>
        <mxCell id="0SsIEOhFhzTk_DGAFsbN-44" value="" style="edgeStyle=none;curved=1;rounded=0;orthogonalLoop=1;jettySize=auto;html=1;fontSize=12;startSize=8;endSize=8;exitX=0.5;exitY=1;exitDx=0;exitDy=0;flowAnimation=0;fillColor=#dae8fc;strokeColor=#6c8ebf;" edge="1" parent="1" source="0SsIEOhFhzTk_DGAFsbN-15" target="0SsIEOhFhzTk_DGAFsbN-43">
          <mxGeometry relative="1" as="geometry" />
        </mxCell>
        <mxCell id="0SsIEOhFhzTk_DGAFsbN-47" value="" style="edgeStyle=none;curved=1;rounded=0;orthogonalLoop=1;jettySize=auto;html=1;fontSize=12;startSize=8;endSize=8;exitX=0.5;exitY=1;exitDx=0;exitDy=0;fillColor=#dae8fc;strokeColor=#6c8ebf;" edge="1" parent="1" source="0SsIEOhFhzTk_DGAFsbN-15" target="0SsIEOhFhzTk_DGAFsbN-46">
          <mxGeometry relative="1" as="geometry" />
        </mxCell>
        <mxCell id="0SsIEOhFhzTk_DGAFsbN-49" value="" style="edgeStyle=none;curved=1;rounded=0;orthogonalLoop=1;jettySize=auto;html=1;fontSize=12;startSize=8;endSize=8;exitX=0.5;exitY=1;exitDx=0;exitDy=0;entryX=0.5;entryY=0;entryDx=0;entryDy=0;fillColor=#dae8fc;strokeColor=#6c8ebf;" edge="1" parent="1" source="0SsIEOhFhzTk_DGAFsbN-15" target="0SsIEOhFhzTk_DGAFsbN-48">
          <mxGeometry relative="1" as="geometry" />
        </mxCell>
        <mxCell id="0SsIEOhFhzTk_DGAFsbN-54" value="" style="edgeStyle=none;curved=1;rounded=0;orthogonalLoop=1;jettySize=auto;html=1;fontSize=12;startSize=8;endSize=8;exitX=0.5;exitY=1;exitDx=0;exitDy=0;entryX=0.5;entryY=0;entryDx=0;entryDy=0;fillColor=#dae8fc;strokeColor=#6c8ebf;" edge="1" parent="1" source="0SsIEOhFhzTk_DGAFsbN-15" target="0SsIEOhFhzTk_DGAFsbN-53">
          <mxGeometry relative="1" as="geometry" />
        </mxCell>
        <mxCell id="0SsIEOhFhzTk_DGAFsbN-15" value="HomeView" style="whiteSpace=wrap;html=1;rounded=0;fillColor=#dae8fc;strokeColor=#6c8ebf;" vertex="1" parent="1">
          <mxGeometry x="370" y="680" width="120" height="50" as="geometry" />
        </mxCell>
        <mxCell id="0SsIEOhFhzTk_DGAFsbN-26" value="" style="edgeStyle=none;curved=1;rounded=0;orthogonalLoop=1;jettySize=auto;html=1;fontSize=12;startSize=8;endSize=8;exitX=0.5;exitY=1;exitDx=0;exitDy=0;fillColor=#f5f5f5;strokeColor=#666666;" edge="1" parent="1" source="0SsIEOhFhzTk_DGAFsbN-17" target="0SsIEOhFhzTk_DGAFsbN-25">
          <mxGeometry relative="1" as="geometry" />
        </mxCell>
        <mxCell id="0SsIEOhFhzTk_DGAFsbN-28" value="" style="edgeStyle=none;curved=1;rounded=0;orthogonalLoop=1;jettySize=auto;html=1;fontSize=12;startSize=8;endSize=8;exitX=0.5;exitY=1;exitDx=0;exitDy=0;fillColor=#f5f5f5;strokeColor=#666666;" edge="1" parent="1" source="0SsIEOhFhzTk_DGAFsbN-17" target="0SsIEOhFhzTk_DGAFsbN-27">
          <mxGeometry relative="1" as="geometry" />
        </mxCell>
        <mxCell id="0SsIEOhFhzTk_DGAFsbN-17" value="ImportSharedDeckView" style="whiteSpace=wrap;html=1;rounded=0;fillColor=#f5f5f5;fontColor=#333333;strokeColor=#666666;" vertex="1" parent="1">
          <mxGeometry x="1570" y="690" width="140" height="50" as="geometry" />
        </mxCell>
        <mxCell id="0SsIEOhFhzTk_DGAFsbN-23" value="" style="edgeStyle=none;curved=1;rounded=0;orthogonalLoop=1;jettySize=auto;html=1;fontSize=12;startSize=8;endSize=8;fillColor=#f5f5f5;strokeColor=#666666;" edge="1" parent="1" source="0SsIEOhFhzTk_DGAFsbN-19" target="0SsIEOhFhzTk_DGAFsbN-22">
          <mxGeometry relative="1" as="geometry" />
        </mxCell>
        <mxCell id="0SsIEOhFhzTk_DGAFsbN-19" value="OnboardingView" style="whiteSpace=wrap;html=1;rounded=0;fillColor=#f5f5f5;fontColor=#333333;strokeColor=#666666;" vertex="1" parent="1">
          <mxGeometry x="-760" y="690" width="120" height="50" as="geometry" />
        </mxCell>
        <mxCell id="0SsIEOhFhzTk_DGAFsbN-22" value="OnboardingCard" style="whiteSpace=wrap;html=1;rounded=0;fillColor=#f5f5f5;fontColor=#333333;strokeColor=#666666;" vertex="1" parent="1">
          <mxGeometry x="-760" y="850" width="120" height="50" as="geometry" />
        </mxCell>
        <mxCell id="0SsIEOhFhzTk_DGAFsbN-25" value="DeckView" style="whiteSpace=wrap;html=1;rounded=0;fillColor=#f5f5f5;fontColor=#333333;strokeColor=#666666;" vertex="1" parent="1">
          <mxGeometry x="1520" y="830" width="120" height="50" as="geometry" />
        </mxCell>
        <mxCell id="0SsIEOhFhzTk_DGAFsbN-27" value="ExpandableCard" style="whiteSpace=wrap;html=1;rounded=0;fillColor=#f5f5f5;fontColor=#333333;strokeColor=#666666;" vertex="1" parent="1">
          <mxGeometry x="1660" y="830" width="120" height="50" as="geometry" />
        </mxCell>
        <mxCell id="0SsIEOhFhzTk_DGAFsbN-36" value="" style="edgeStyle=none;curved=1;rounded=0;orthogonalLoop=1;jettySize=auto;html=1;fontSize=12;startSize=8;endSize=8;exitX=0.5;exitY=1;exitDx=0;exitDy=0;fillColor=#d5e8d4;strokeColor=#82b366;" edge="1" parent="1" source="0SsIEOhFhzTk_DGAFsbN-29" target="0SsIEOhFhzTk_DGAFsbN-35">
          <mxGeometry relative="1" as="geometry" />
        </mxCell>
        <mxCell id="0SsIEOhFhzTk_DGAFsbN-39" value="" style="edgeStyle=none;curved=1;rounded=0;orthogonalLoop=1;jettySize=auto;html=1;fontSize=12;startSize=8;endSize=8;exitX=0.5;exitY=1;exitDx=0;exitDy=0;entryX=0.5;entryY=0;entryDx=0;entryDy=0;fillColor=#d5e8d4;strokeColor=#82b366;" edge="1" parent="1" source="0SsIEOhFhzTk_DGAFsbN-29" target="0SsIEOhFhzTk_DGAFsbN-38">
          <mxGeometry relative="1" as="geometry" />
        </mxCell>
        <mxCell id="0SsIEOhFhzTk_DGAFsbN-42" value="" style="edgeStyle=none;curved=1;rounded=0;orthogonalLoop=1;jettySize=auto;html=1;fontSize=12;startSize=8;endSize=8;exitX=0.5;exitY=1;exitDx=0;exitDy=0;entryX=0.5;entryY=0;entryDx=0;entryDy=0;fillColor=#d5e8d4;strokeColor=#82b366;" edge="1" parent="1" source="0SsIEOhFhzTk_DGAFsbN-29" target="0SsIEOhFhzTk_DGAFsbN-41">
          <mxGeometry relative="1" as="geometry" />
        </mxCell>
        <mxCell id="0SsIEOhFhzTk_DGAFsbN-29" value="CommunityDeckGroup" style="whiteSpace=wrap;html=1;rounded=0;fillColor=#d5e8d4;strokeColor=#82b366;" vertex="1" parent="1">
          <mxGeometry x="-230" y="850" width="150" height="50" as="geometry" />
        </mxCell>
        <mxCell id="0SsIEOhFhzTk_DGAFsbN-31" value="DiscoverSettingsView" style="whiteSpace=wrap;html=1;rounded=0;fillColor=#d5e8d4;strokeColor=#82b366;" vertex="1" parent="1">
          <mxGeometry x="-540" y="850" width="130" height="50" as="geometry" />
        </mxCell>
        <mxCell id="0SsIEOhFhzTk_DGAFsbN-33" value="DeckGroupView" style="whiteSpace=wrap;html=1;rounded=0;fillColor=#d5e8d4;strokeColor=#82b366;" vertex="1" parent="1">
          <mxGeometry x="-380" y="850" width="120" height="50" as="geometry" />
        </mxCell>
        <mxCell id="0SsIEOhFhzTk_DGAFsbN-35" value="CommunityDeckGroup" style="whiteSpace=wrap;html=1;rounded=0;fillColor=#d5e8d4;strokeColor=#82b366;" vertex="1" parent="1">
          <mxGeometry x="-380" y="1020" width="150" height="50" as="geometry" />
        </mxCell>
        <mxCell id="0SsIEOhFhzTk_DGAFsbN-38" value="DeckView" style="whiteSpace=wrap;html=1;rounded=0;fillColor=#d5e8d4;strokeColor=#82b366;" vertex="1" parent="1">
          <mxGeometry x="-210" y="1020" width="110" height="50" as="geometry" />
        </mxCell>
        <mxCell id="0SsIEOhFhzTk_DGAFsbN-41" value="AccountAuthenticationView" style="whiteSpace=wrap;html=1;rounded=0;fillColor=#d5e8d4;strokeColor=#82b366;" vertex="1" parent="1">
          <mxGeometry x="-80" y="1020" width="160" height="50" as="geometry" />
        </mxCell>
        <mxCell id="0SsIEOhFhzTk_DGAFsbN-56" value="" style="edgeStyle=none;curved=1;rounded=0;orthogonalLoop=1;jettySize=auto;html=1;fontSize=12;startSize=8;endSize=8;exitX=0.5;exitY=1;exitDx=0;exitDy=0;entryX=0.5;entryY=0;entryDx=0;entryDy=0;flowAnimation=0;fillColor=#dae8fc;strokeColor=#6c8ebf;" edge="1" parent="1" source="0SsIEOhFhzTk_DGAFsbN-43" target="0SsIEOhFhzTk_DGAFsbN-55">
          <mxGeometry relative="1" as="geometry">
            <mxPoint x="510" y="900" as="sourcePoint" />
          </mxGeometry>
        </mxCell>
        <mxCell id="0SsIEOhFhzTk_DGAFsbN-58" value="" style="edgeStyle=none;curved=1;rounded=0;orthogonalLoop=1;jettySize=auto;html=1;fontSize=12;startSize=8;endSize=8;exitX=0.5;exitY=1;exitDx=0;exitDy=0;entryX=0.5;entryY=0;entryDx=0;entryDy=0;fillColor=#dae8fc;strokeColor=#6c8ebf;" edge="1" parent="1" source="0SsIEOhFhzTk_DGAFsbN-43" target="0SsIEOhFhzTk_DGAFsbN-57">
          <mxGeometry relative="1" as="geometry" />
        </mxCell>
        <mxCell id="0SsIEOhFhzTk_DGAFsbN-61" value="" style="edgeStyle=none;curved=1;rounded=0;orthogonalLoop=1;jettySize=auto;html=1;fontSize=12;startSize=8;endSize=8;exitX=0.5;exitY=1;exitDx=0;exitDy=0;entryX=0.5;entryY=0;entryDx=0;entryDy=0;fillColor=#dae8fc;strokeColor=#6c8ebf;" edge="1" parent="1" source="0SsIEOhFhzTk_DGAFsbN-43" target="0SsIEOhFhzTk_DGAFsbN-60">
          <mxGeometry relative="1" as="geometry">
            <mxPoint x="252" y="1150" as="targetPoint" />
          </mxGeometry>
        </mxCell>
        <mxCell id="0SsIEOhFhzTk_DGAFsbN-63" value="" style="edgeStyle=none;curved=1;rounded=0;orthogonalLoop=1;jettySize=auto;html=1;fontSize=12;startSize=8;endSize=8;exitX=0.5;exitY=1;exitDx=0;exitDy=0;entryX=0.5;entryY=0;entryDx=0;entryDy=0;fillColor=#dae8fc;strokeColor=#6c8ebf;" edge="1" parent="1" source="0SsIEOhFhzTk_DGAFsbN-43" target="0SsIEOhFhzTk_DGAFsbN-62">
          <mxGeometry relative="1" as="geometry" />
        </mxCell>
        <mxCell id="0SsIEOhFhzTk_DGAFsbN-65" value="" style="edgeStyle=none;curved=1;rounded=0;orthogonalLoop=1;jettySize=auto;html=1;fontSize=12;startSize=8;endSize=8;exitX=0.5;exitY=1;exitDx=0;exitDy=0;entryX=0.5;entryY=0;entryDx=0;entryDy=0;fillColor=#dae8fc;strokeColor=#6c8ebf;" edge="1" parent="1" source="0SsIEOhFhzTk_DGAFsbN-43" target="0SsIEOhFhzTk_DGAFsbN-64">
          <mxGeometry relative="1" as="geometry" />
        </mxCell>
        <mxCell id="0SsIEOhFhzTk_DGAFsbN-69" value="" style="edgeStyle=none;curved=1;rounded=0;orthogonalLoop=1;jettySize=auto;html=1;fontSize=12;startSize=8;endSize=8;exitX=0.5;exitY=1;exitDx=0;exitDy=0;entryX=0.5;entryY=0;entryDx=0;entryDy=0;fillColor=#dae8fc;strokeColor=#6c8ebf;" edge="1" parent="1" source="0SsIEOhFhzTk_DGAFsbN-43" target="0SsIEOhFhzTk_DGAFsbN-68">
          <mxGeometry relative="1" as="geometry" />
        </mxCell>
        <mxCell id="0SsIEOhFhzTk_DGAFsbN-71" value="" style="edgeStyle=none;curved=1;rounded=0;orthogonalLoop=1;jettySize=auto;html=1;fontSize=12;startSize=8;endSize=8;exitX=0.5;exitY=1;exitDx=0;exitDy=0;entryX=0.5;entryY=0;entryDx=0;entryDy=0;fillColor=#dae8fc;strokeColor=#6c8ebf;" edge="1" parent="1" source="0SsIEOhFhzTk_DGAFsbN-43" target="0SsIEOhFhzTk_DGAFsbN-70">
          <mxGeometry relative="1" as="geometry" />
        </mxCell>
        <mxCell id="0SsIEOhFhzTk_DGAFsbN-43" value="DeckListView" style="whiteSpace=wrap;html=1;rounded=0;fillColor=#dae8fc;strokeColor=#6c8ebf;" vertex="1" parent="1">
          <mxGeometry x="478" y="840" width="120" height="50" as="geometry" />
        </mxCell>
        <mxCell id="0SsIEOhFhzTk_DGAFsbN-46" value="ToastView" style="whiteSpace=wrap;html=1;rounded=0;fillColor=#dae8fc;strokeColor=#6c8ebf;" vertex="1" parent="1">
          <mxGeometry x="633" y="840" width="120" height="50" as="geometry" />
        </mxCell>
        <mxCell id="0SsIEOhFhzTk_DGAFsbN-48" value="AccountView" style="whiteSpace=wrap;html=1;rounded=0;fillColor=#dae8fc;strokeColor=#6c8ebf;" vertex="1" parent="1">
          <mxGeometry x="298" y="840" width="120" height="50" as="geometry" />
        </mxCell>
        <mxCell id="0SsIEOhFhzTk_DGAFsbN-53" value="AccountAuthenticationView" style="whiteSpace=wrap;html=1;rounded=0;fillColor=#dae8fc;strokeColor=#6c8ebf;" vertex="1" parent="1">
          <mxGeometry x="98" y="840" width="160" height="50" as="geometry" />
        </mxCell>
        <mxCell id="0SsIEOhFhzTk_DGAFsbN-83" value="" style="edgeStyle=none;curved=1;rounded=0;orthogonalLoop=1;jettySize=auto;html=1;fontSize=12;startSize=8;endSize=8;exitX=0.5;exitY=1;exitDx=0;exitDy=0;entryX=0.466;entryY=-0.006;entryDx=0;entryDy=0;entryPerimeter=0;fillColor=#dae8fc;strokeColor=#6c8ebf;" edge="1" parent="1" source="0SsIEOhFhzTk_DGAFsbN-55" target="0SsIEOhFhzTk_DGAFsbN-82">
          <mxGeometry relative="1" as="geometry" />
        </mxCell>
        <mxCell id="0SsIEOhFhzTk_DGAFsbN-85" value="" style="edgeStyle=none;curved=1;rounded=0;orthogonalLoop=1;jettySize=auto;html=1;fontSize=12;startSize=8;endSize=8;exitX=0.5;exitY=1;exitDx=0;exitDy=0;entryX=0.5;entryY=0;entryDx=0;entryDy=0;fillColor=#dae8fc;strokeColor=#6c8ebf;" edge="1" parent="1" source="0SsIEOhFhzTk_DGAFsbN-55" target="0SsIEOhFhzTk_DGAFsbN-84">
          <mxGeometry relative="1" as="geometry" />
        </mxCell>
        <mxCell id="0SsIEOhFhzTk_DGAFsbN-88" value="" style="edgeStyle=none;curved=1;rounded=0;orthogonalLoop=1;jettySize=auto;html=1;fontSize=12;startSize=8;endSize=8;exitX=0.5;exitY=1;exitDx=0;exitDy=0;entryX=0.5;entryY=0;entryDx=0;entryDy=0;flowAnimation=0;fillColor=#dae8fc;strokeColor=#6c8ebf;" edge="1" parent="1" source="0SsIEOhFhzTk_DGAFsbN-55" target="0SsIEOhFhzTk_DGAFsbN-87">
          <mxGeometry relative="1" as="geometry" />
        </mxCell>
        <mxCell id="0SsIEOhFhzTk_DGAFsbN-90" value="" style="edgeStyle=none;curved=1;rounded=0;orthogonalLoop=1;jettySize=auto;html=1;fontSize=12;startSize=8;endSize=8;exitX=0.5;exitY=1;exitDx=0;exitDy=0;entryX=0.5;entryY=0;entryDx=0;entryDy=0;fillColor=#dae8fc;strokeColor=#6c8ebf;" edge="1" parent="1" source="0SsIEOhFhzTk_DGAFsbN-55" target="0SsIEOhFhzTk_DGAFsbN-89">
          <mxGeometry relative="1" as="geometry">
            <mxPoint x="10" y="1540" as="targetPoint" />
          </mxGeometry>
        </mxCell>
        <mxCell id="0SsIEOhFhzTk_DGAFsbN-92" value="" style="edgeStyle=none;curved=1;rounded=0;orthogonalLoop=1;jettySize=auto;html=1;fontSize=12;startSize=8;endSize=8;exitX=0.5;exitY=1;exitDx=0;exitDy=0;fillColor=#dae8fc;strokeColor=#6c8ebf;" edge="1" parent="1" source="0SsIEOhFhzTk_DGAFsbN-55" target="0SsIEOhFhzTk_DGAFsbN-91">
          <mxGeometry relative="1" as="geometry" />
        </mxCell>
        <mxCell id="0SsIEOhFhzTk_DGAFsbN-55" value="CardsOverview" style="whiteSpace=wrap;html=1;rounded=0;fillColor=#dae8fc;strokeColor=#6c8ebf;" vertex="1" parent="1">
          <mxGeometry x="98" y="1240" width="120" height="50" as="geometry" />
        </mxCell>
        <mxCell id="0SsIEOhFhzTk_DGAFsbN-57" value="DeckView" style="whiteSpace=wrap;html=1;rounded=0;fillColor=#dae8fc;strokeColor=#6c8ebf;" vertex="1" parent="1">
          <mxGeometry x="-150" y="1240" width="120" height="50" as="geometry" />
        </mxCell>
        <mxCell id="0SsIEOhFhzTk_DGAFsbN-60" value="AccountAuthenticationView" style="whiteSpace=wrap;html=1;rounded=0;fillColor=#dae8fc;strokeColor=#6c8ebf;" vertex="1" parent="1">
          <mxGeometry x="370" y="1240" width="170" height="50" as="geometry" />
        </mxCell>
        <mxCell id="0SsIEOhFhzTk_DGAFsbN-166" value="" style="edgeStyle=none;curved=1;rounded=0;orthogonalLoop=1;jettySize=auto;html=1;fontSize=12;startSize=8;endSize=8;fillColor=#dae8fc;strokeColor=#6c8ebf;" edge="1" parent="1" source="0SsIEOhFhzTk_DGAFsbN-62" target="0SsIEOhFhzTk_DGAFsbN-165">
          <mxGeometry relative="1" as="geometry" />
        </mxCell>
        <mxCell id="0SsIEOhFhzTk_DGAFsbN-168" value="" style="edgeStyle=none;curved=1;rounded=0;orthogonalLoop=1;jettySize=auto;html=1;fontSize=12;startSize=8;endSize=8;fillColor=#dae8fc;strokeColor=#6c8ebf;" edge="1" parent="1" source="0SsIEOhFhzTk_DGAFsbN-62" target="0SsIEOhFhzTk_DGAFsbN-167">
          <mxGeometry relative="1" as="geometry" />
        </mxCell>
        <mxCell id="0SsIEOhFhzTk_DGAFsbN-62" value="ShareDeckView" style="whiteSpace=wrap;html=1;rounded=0;fillColor=#dae8fc;strokeColor=#6c8ebf;" vertex="1" parent="1">
          <mxGeometry x="753" y="1240" width="120" height="50" as="geometry" />
        </mxCell>
        <mxCell id="0SsIEOhFhzTk_DGAFsbN-163" style="edgeStyle=none;curved=1;rounded=0;orthogonalLoop=1;jettySize=auto;html=1;exitX=0.5;exitY=1;exitDx=0;exitDy=0;entryX=0.5;entryY=0;entryDx=0;entryDy=0;fontSize=12;startSize=8;endSize=8;fillColor=#dae8fc;strokeColor=#6c8ebf;" edge="1" parent="1" source="0SsIEOhFhzTk_DGAFsbN-64" target="0SsIEOhFhzTk_DGAFsbN-111">
          <mxGeometry relative="1" as="geometry" />
        </mxCell>
        <mxCell id="0SsIEOhFhzTk_DGAFsbN-64" value="EditDeckView" style="whiteSpace=wrap;html=1;rounded=0;fillColor=#dae8fc;strokeColor=#6c8ebf;" vertex="1" parent="1">
          <mxGeometry x="1030" y="1240" width="120" height="50" as="geometry" />
        </mxCell>
        <mxCell id="0SsIEOhFhzTk_DGAFsbN-112" value="" style="edgeStyle=none;curved=1;rounded=0;orthogonalLoop=1;jettySize=auto;html=1;fontSize=12;startSize=8;endSize=8;fillColor=#dae8fc;strokeColor=#6c8ebf;exitX=0.5;exitY=1;exitDx=0;exitDy=0;" edge="1" parent="1" source="0SsIEOhFhzTk_DGAFsbN-68" target="0SsIEOhFhzTk_DGAFsbN-111">
          <mxGeometry relative="1" as="geometry" />
        </mxCell>
        <mxCell id="0SsIEOhFhzTk_DGAFsbN-157" value="" style="edgeStyle=none;curved=1;rounded=0;orthogonalLoop=1;jettySize=auto;html=1;fontSize=12;startSize=8;endSize=8;fillColor=#dae8fc;strokeColor=#6c8ebf;exitX=0.5;exitY=1;exitDx=0;exitDy=0;" edge="1" parent="1" source="0SsIEOhFhzTk_DGAFsbN-68" target="0SsIEOhFhzTk_DGAFsbN-156">
          <mxGeometry relative="1" as="geometry" />
        </mxCell>
        <mxCell id="0SsIEOhFhzTk_DGAFsbN-68" value="AddDeckView" style="whiteSpace=wrap;html=1;rounded=0;fillColor=#dae8fc;strokeColor=#6c8ebf;" vertex="1" parent="1">
          <mxGeometry x="1170" y="1240" width="120" height="50" as="geometry" />
        </mxCell>
        <mxCell id="0SsIEOhFhzTk_DGAFsbN-171" value="" style="edgeStyle=none;curved=1;rounded=0;orthogonalLoop=1;jettySize=auto;html=1;fontSize=12;startSize=8;endSize=8;exitX=0.5;exitY=1;exitDx=0;exitDy=0;entryX=0.5;entryY=0;entryDx=0;entryDy=0;fillColor=#dae8fc;strokeColor=#6c8ebf;" edge="1" parent="1" source="0SsIEOhFhzTk_DGAFsbN-70" target="0SsIEOhFhzTk_DGAFsbN-170">
          <mxGeometry relative="1" as="geometry" />
        </mxCell>
        <mxCell id="0SsIEOhFhzTk_DGAFsbN-70" value="UploadDeckView" style="whiteSpace=wrap;html=1;rounded=0;fillColor=#dae8fc;strokeColor=#6c8ebf;" vertex="1" parent="1">
          <mxGeometry x="1380" y="1230" width="120" height="50" as="geometry" />
        </mxCell>
        <mxCell id="0SsIEOhFhzTk_DGAFsbN-72" value="AppearanceView" style="whiteSpace=wrap;html=1;rounded=0;fillColor=#ffe6cc;strokeColor=#d79b00;" vertex="1" parent="1">
          <mxGeometry x="900" y="830" width="120" height="50" as="geometry" />
        </mxCell>
        <mxCell id="0SsIEOhFhzTk_DGAFsbN-74" value="NotificationsView" style="whiteSpace=wrap;html=1;rounded=0;fillColor=#ffe6cc;strokeColor=#d79b00;" vertex="1" parent="1">
          <mxGeometry x="1050" y="830" width="120" height="50" as="geometry" />
        </mxCell>
        <mxCell id="0SsIEOhFhzTk_DGAFsbN-78" value="BioView" style="whiteSpace=wrap;html=1;rounded=0;fillColor=#ffe6cc;strokeColor=#d79b00;" vertex="1" parent="1">
          <mxGeometry x="1190" y="830" width="120" height="50" as="geometry" />
        </mxCell>
        <mxCell id="0SsIEOhFhzTk_DGAFsbN-80" value="FAQView" style="whiteSpace=wrap;html=1;rounded=0;fillColor=#ffe6cc;strokeColor=#d79b00;" vertex="1" parent="1">
          <mxGeometry x="1330" y="830" width="120" height="50" as="geometry" />
        </mxCell>
        <mxCell id="0SsIEOhFhzTk_DGAFsbN-82" value="ExpandableCard" style="whiteSpace=wrap;html=1;rounded=0;fillColor=#dae8fc;strokeColor=#6c8ebf;" vertex="1" parent="1">
          <mxGeometry x="338" y="1520" width="120" height="50" as="geometry" />
        </mxCell>
        <mxCell id="0SsIEOhFhzTk_DGAFsbN-84" value="ToastView" style="whiteSpace=wrap;html=1;rounded=0;fillColor=#dae8fc;strokeColor=#6c8ebf;" vertex="1" parent="1">
          <mxGeometry x="480" y="1520" width="120" height="50" as="geometry" />
        </mxCell>
        <mxCell id="0SsIEOhFhzTk_DGAFsbN-97" value="" style="edgeStyle=none;curved=1;rounded=0;orthogonalLoop=1;jettySize=auto;html=1;fontSize=12;startSize=8;endSize=8;exitX=0.5;exitY=1;exitDx=0;exitDy=0;entryX=0.5;entryY=0;entryDx=0;entryDy=0;flowAnimation=0;fillColor=#dae8fc;strokeColor=#6c8ebf;" edge="1" parent="1" source="0SsIEOhFhzTk_DGAFsbN-87" target="0SsIEOhFhzTk_DGAFsbN-96">
          <mxGeometry relative="1" as="geometry" />
        </mxCell>
        <mxCell id="0SsIEOhFhzTk_DGAFsbN-128" value="" style="edgeStyle=none;curved=1;rounded=0;orthogonalLoop=1;jettySize=auto;html=1;fontSize=12;startSize=8;endSize=8;exitX=0.5;exitY=1;exitDx=0;exitDy=0;entryX=0.5;entryY=0;entryDx=0;entryDy=0;fillColor=#dae8fc;strokeColor=#6c8ebf;flowAnimation=0;" edge="1" parent="1" source="0SsIEOhFhzTk_DGAFsbN-87" target="0SsIEOhFhzTk_DGAFsbN-127">
          <mxGeometry relative="1" as="geometry" />
        </mxCell>
        <mxCell id="0SsIEOhFhzTk_DGAFsbN-130" value="" style="edgeStyle=none;curved=1;rounded=0;orthogonalLoop=1;jettySize=auto;html=1;fontSize=12;startSize=8;endSize=8;exitX=0.5;exitY=1;exitDx=0;exitDy=0;entryX=0.5;entryY=0;entryDx=0;entryDy=0;fillColor=#dae8fc;strokeColor=#6c8ebf;flowAnimation=0;" edge="1" parent="1" source="0SsIEOhFhzTk_DGAFsbN-87" target="0SsIEOhFhzTk_DGAFsbN-129">
          <mxGeometry relative="1" as="geometry" />
        </mxCell>
        <mxCell id="0SsIEOhFhzTk_DGAFsbN-132" value="" style="edgeStyle=none;curved=1;rounded=0;orthogonalLoop=1;jettySize=auto;html=1;fontSize=12;startSize=8;endSize=8;exitX=0.5;exitY=1;exitDx=0;exitDy=0;entryX=0.5;entryY=0;entryDx=0;entryDy=0;fillColor=#dae8fc;strokeColor=#6c8ebf;flowAnimation=0;" edge="1" parent="1" source="0SsIEOhFhzTk_DGAFsbN-87" target="0SsIEOhFhzTk_DGAFsbN-131">
          <mxGeometry relative="1" as="geometry" />
        </mxCell>
        <mxCell id="0SsIEOhFhzTk_DGAFsbN-139" value="" style="edgeStyle=none;curved=1;rounded=0;orthogonalLoop=1;jettySize=auto;html=1;fontSize=12;startSize=8;endSize=8;entryX=0.5;entryY=0;entryDx=0;entryDy=0;exitX=0.5;exitY=1;exitDx=0;exitDy=0;fillColor=#dae8fc;strokeColor=#6c8ebf;flowAnimation=0;" edge="1" parent="1" source="0SsIEOhFhzTk_DGAFsbN-87" target="0SsIEOhFhzTk_DGAFsbN-138">
          <mxGeometry relative="1" as="geometry" />
        </mxCell>
        <mxCell id="0SsIEOhFhzTk_DGAFsbN-87" value="AddCardView" style="whiteSpace=wrap;html=1;rounded=0;fillColor=#dae8fc;strokeColor=#6c8ebf;" vertex="1" parent="1">
          <mxGeometry x="-500" y="1520" width="120" height="50" as="geometry" />
        </mxCell>
        <mxCell id="0SsIEOhFhzTk_DGAFsbN-150" style="edgeStyle=none;curved=1;rounded=0;orthogonalLoop=1;jettySize=auto;html=1;exitX=0.5;exitY=1;exitDx=0;exitDy=0;entryX=0.5;entryY=0;entryDx=0;entryDy=0;fontSize=12;startSize=8;endSize=8;fillColor=#dae8fc;strokeColor=#6c8ebf;flowAnimation=0;" edge="1" parent="1" source="0SsIEOhFhzTk_DGAFsbN-89" target="0SsIEOhFhzTk_DGAFsbN-96">
          <mxGeometry relative="1" as="geometry" />
        </mxCell>
        <mxCell id="0SsIEOhFhzTk_DGAFsbN-151" style="edgeStyle=none;curved=1;rounded=0;orthogonalLoop=1;jettySize=auto;html=1;exitX=0.5;exitY=1;exitDx=0;exitDy=0;entryX=0.5;entryY=0;entryDx=0;entryDy=0;fontSize=12;startSize=8;endSize=8;fillColor=#dae8fc;strokeColor=#6c8ebf;flowAnimation=0;" edge="1" parent="1" source="0SsIEOhFhzTk_DGAFsbN-89" target="0SsIEOhFhzTk_DGAFsbN-131">
          <mxGeometry relative="1" as="geometry" />
        </mxCell>
        <mxCell id="0SsIEOhFhzTk_DGAFsbN-152" style="edgeStyle=none;curved=1;rounded=0;orthogonalLoop=1;jettySize=auto;html=1;exitX=0.5;exitY=1;exitDx=0;exitDy=0;entryX=0.5;entryY=0;entryDx=0;entryDy=0;fontSize=12;startSize=8;endSize=8;fillColor=#dae8fc;strokeColor=#6c8ebf;flowAnimation=0;" edge="1" parent="1" source="0SsIEOhFhzTk_DGAFsbN-89" target="0SsIEOhFhzTk_DGAFsbN-129">
          <mxGeometry relative="1" as="geometry" />
        </mxCell>
        <mxCell id="0SsIEOhFhzTk_DGAFsbN-153" style="edgeStyle=none;curved=1;rounded=0;orthogonalLoop=1;jettySize=auto;html=1;exitX=0.5;exitY=1;exitDx=0;exitDy=0;entryX=0.5;entryY=0;entryDx=0;entryDy=0;fontSize=12;startSize=8;endSize=8;fillColor=#dae8fc;strokeColor=#6c8ebf;flowAnimation=0;" edge="1" parent="1" source="0SsIEOhFhzTk_DGAFsbN-89" target="0SsIEOhFhzTk_DGAFsbN-138">
          <mxGeometry relative="1" as="geometry" />
        </mxCell>
        <mxCell id="0SsIEOhFhzTk_DGAFsbN-154" style="edgeStyle=none;curved=1;rounded=0;orthogonalLoop=1;jettySize=auto;html=1;exitX=0.5;exitY=1;exitDx=0;exitDy=0;entryX=0.5;entryY=0;entryDx=0;entryDy=0;fontSize=12;startSize=8;endSize=8;fillColor=#dae8fc;strokeColor=#6c8ebf;flowAnimation=0;" edge="1" parent="1" source="0SsIEOhFhzTk_DGAFsbN-89" target="0SsIEOhFhzTk_DGAFsbN-127">
          <mxGeometry relative="1" as="geometry" />
        </mxCell>
        <mxCell id="0SsIEOhFhzTk_DGAFsbN-89" value="EditCardView" style="whiteSpace=wrap;html=1;rounded=0;fillColor=#dae8fc;strokeColor=#6c8ebf;" vertex="1" parent="1">
          <mxGeometry x="-215" y="1520" width="120" height="50" as="geometry" />
        </mxCell>
        <mxCell id="0SsIEOhFhzTk_DGAFsbN-159" value="" style="edgeStyle=none;curved=1;rounded=0;orthogonalLoop=1;jettySize=auto;html=1;fontSize=12;startSize=8;endSize=8;fillColor=#dae8fc;strokeColor=#6c8ebf;exitX=0.5;exitY=1;exitDx=0;exitDy=0;" edge="1" parent="1" source="0SsIEOhFhzTk_DGAFsbN-91" target="0SsIEOhFhzTk_DGAFsbN-158">
          <mxGeometry relative="1" as="geometry" />
        </mxCell>
        <mxCell id="0SsIEOhFhzTk_DGAFsbN-162" value="" style="edgeStyle=none;curved=1;rounded=0;orthogonalLoop=1;jettySize=auto;html=1;fontSize=12;startSize=8;endSize=8;fillColor=#dae8fc;strokeColor=#6c8ebf;exitX=0.5;exitY=1;exitDx=0;exitDy=0;" edge="1" parent="1" source="0SsIEOhFhzTk_DGAFsbN-91" target="0SsIEOhFhzTk_DGAFsbN-161">
          <mxGeometry relative="1" as="geometry" />
        </mxCell>
        <mxCell id="0SsIEOhFhzTk_DGAFsbN-91" value="CardsReviewSession" style="whiteSpace=wrap;html=1;rounded=0;fillColor=#dae8fc;strokeColor=#6c8ebf;" vertex="1" parent="1">
          <mxGeometry x="150" y="1520" width="120" height="50" as="geometry" />
        </mxCell>
        <mxCell id="0SsIEOhFhzTk_DGAFsbN-101" value="" style="edgeStyle=none;curved=1;rounded=0;orthogonalLoop=1;jettySize=auto;html=1;fontSize=12;startSize=8;endSize=8;exitX=0.5;exitY=1;exitDx=0;exitDy=0;entryX=0.5;entryY=0;entryDx=0;entryDy=0;fillColor=#dae8fc;strokeColor=#6c8ebf;flowAnimation=0;" edge="1" parent="1" source="0SsIEOhFhzTk_DGAFsbN-96" target="0SsIEOhFhzTk_DGAFsbN-100">
          <mxGeometry relative="1" as="geometry" />
        </mxCell>
        <mxCell id="0SsIEOhFhzTk_DGAFsbN-110" value="" style="edgeStyle=none;curved=1;rounded=0;orthogonalLoop=1;jettySize=auto;html=1;fontSize=12;startSize=8;endSize=8;exitX=0.5;exitY=1;exitDx=0;exitDy=0;entryX=0.5;entryY=0;entryDx=0;entryDy=0;fillColor=#dae8fc;strokeColor=#6c8ebf;flowAnimation=0;" edge="1" parent="1" source="0SsIEOhFhzTk_DGAFsbN-96" target="0SsIEOhFhzTk_DGAFsbN-109">
          <mxGeometry relative="1" as="geometry">
            <mxPoint x="265" y="1930" as="targetPoint" />
          </mxGeometry>
        </mxCell>
        <mxCell id="0SsIEOhFhzTk_DGAFsbN-96" value="CardEditorView" style="whiteSpace=wrap;html=1;rounded=0;fillColor=#dae8fc;strokeColor=#6c8ebf;" vertex="1" parent="1">
          <mxGeometry x="-10" y="1820" width="120" height="50" as="geometry" />
        </mxCell>
        <mxCell id="0SsIEOhFhzTk_DGAFsbN-105" value="" style="edgeStyle=none;curved=1;rounded=0;orthogonalLoop=1;jettySize=auto;html=1;fontSize=12;startSize=8;endSize=8;exitX=0.5;exitY=1;exitDx=0;exitDy=0;entryX=0.5;entryY=0;entryDx=0;entryDy=0;fillColor=#dae8fc;strokeColor=#6c8ebf;flowAnimation=1;" edge="1" parent="1" source="0SsIEOhFhzTk_DGAFsbN-100" target="0SsIEOhFhzTk_DGAFsbN-104">
          <mxGeometry relative="1" as="geometry" />
        </mxCell>
        <mxCell id="0SsIEOhFhzTk_DGAFsbN-100" value="TextEditor" style="whiteSpace=wrap;html=1;rounded=0;fillColor=#dae8fc;strokeColor=#6c8ebf;" vertex="1" parent="1">
          <mxGeometry x="-100" y="1940" width="120" height="50" as="geometry" />
        </mxCell>
        <mxCell id="0SsIEOhFhzTk_DGAFsbN-104" value="LatexView" style="whiteSpace=wrap;html=1;rounded=0;fillColor=#dae8fc;strokeColor=#6c8ebf;" vertex="1" parent="1">
          <mxGeometry x="-100" y="2040" width="120" height="50" as="geometry" />
        </mxCell>
        <mxCell id="0SsIEOhFhzTk_DGAFsbN-109" value="KeyboardToolbarButtons" style="whiteSpace=wrap;html=1;rounded=0;fillColor=#dae8fc;strokeColor=#6c8ebf;" vertex="1" parent="1">
          <mxGeometry x="60" y="1940" width="160" height="50" as="geometry" />
        </mxCell>
        <mxCell id="0SsIEOhFhzTk_DGAFsbN-111" value="ColorSlider" style="whiteSpace=wrap;html=1;rounded=0;fillColor=#dae8fc;strokeColor=#6c8ebf;" vertex="1" parent="1">
          <mxGeometry x="1180" y="1520" width="120" height="50" as="geometry" />
        </mxCell>
        <mxCell id="0SsIEOhFhzTk_DGAFsbN-127" value="CapsuleProgressBar" style="whiteSpace=wrap;html=1;rounded=0;fillColor=#dae8fc;strokeColor=#6c8ebf;" vertex="1" parent="1">
          <mxGeometry x="-930" y="1820" width="130" height="50" as="geometry" />
        </mxCell>
        <mxCell id="0SsIEOhFhzTk_DGAFsbN-141" value="" style="edgeStyle=none;curved=1;rounded=0;orthogonalLoop=1;jettySize=auto;html=1;fontSize=12;startSize=8;endSize=8;fillColor=#dae8fc;strokeColor=#6c8ebf;exitX=0.5;exitY=1;exitDx=0;exitDy=0;entryX=0.5;entryY=0;entryDx=0;entryDy=0;flowAnimation=0;" edge="1" parent="1" source="0SsIEOhFhzTk_DGAFsbN-129" target="0SsIEOhFhzTk_DGAFsbN-140">
          <mxGeometry relative="1" as="geometry" />
        </mxCell>
        <mxCell id="0SsIEOhFhzTk_DGAFsbN-146" value="" style="edgeStyle=none;curved=1;rounded=0;orthogonalLoop=1;jettySize=auto;html=1;fontSize=12;startSize=8;endSize=8;fillColor=#dae8fc;strokeColor=#6c8ebf;exitX=0.5;exitY=1;exitDx=0;exitDy=0;entryX=0.5;entryY=0;entryDx=0;entryDy=0;flowAnimation=0;" edge="1" parent="1" source="0SsIEOhFhzTk_DGAFsbN-129" target="0SsIEOhFhzTk_DGAFsbN-145">
          <mxGeometry relative="1" as="geometry" />
        </mxCell>
        <mxCell id="0SsIEOhFhzTk_DGAFsbN-129" value="CameraFlowView" style="whiteSpace=wrap;html=1;rounded=0;fillColor=#dae8fc;strokeColor=#6c8ebf;" vertex="1" parent="1">
          <mxGeometry x="-570" y="1820" width="120" height="50" as="geometry" />
        </mxCell>
        <mxCell id="0SsIEOhFhzTk_DGAFsbN-144" value="" style="edgeStyle=none;curved=1;rounded=0;orthogonalLoop=1;jettySize=auto;html=1;fontSize=12;startSize=8;endSize=8;fillColor=#dae8fc;strokeColor=#6c8ebf;entryX=0.5;entryY=0;entryDx=0;entryDy=0;exitX=0.5;exitY=1;exitDx=0;exitDy=0;flowAnimation=0;" edge="1" parent="1" source="0SsIEOhFhzTk_DGAFsbN-131" target="0SsIEOhFhzTk_DGAFsbN-143">
          <mxGeometry relative="1" as="geometry" />
        </mxCell>
        <mxCell id="0SsIEOhFhzTk_DGAFsbN-148" value="" style="edgeStyle=none;curved=1;rounded=0;orthogonalLoop=1;jettySize=auto;html=1;fontSize=12;startSize=8;endSize=8;entryX=0.5;entryY=0;entryDx=0;entryDy=0;fillColor=#dae8fc;strokeColor=#6c8ebf;exitX=0.5;exitY=1;exitDx=0;exitDy=0;flowAnimation=0;" edge="1" parent="1" source="0SsIEOhFhzTk_DGAFsbN-131" target="0SsIEOhFhzTk_DGAFsbN-147">
          <mxGeometry relative="1" as="geometry" />
        </mxCell>
        <mxCell id="0SsIEOhFhzTk_DGAFsbN-131" value="PhotoPickerFlowView" style="whiteSpace=wrap;html=1;rounded=0;fillColor=#dae8fc;strokeColor=#6c8ebf;" vertex="1" parent="1">
          <mxGeometry x="-330" y="1820" width="130" height="50" as="geometry" />
        </mxCell>
        <mxCell id="0SsIEOhFhzTk_DGAFsbN-138" value="LatexPhotoTutorial" style="whiteSpace=wrap;html=1;rounded=0;fillColor=#dae8fc;strokeColor=#6c8ebf;" vertex="1" parent="1">
          <mxGeometry x="-750" y="1820" width="120" height="50" as="geometry" />
        </mxCell>
        <mxCell id="0SsIEOhFhzTk_DGAFsbN-140" value="CropperView" style="whiteSpace=wrap;html=1;rounded=0;fillColor=#dae8fc;strokeColor=#6c8ebf;" vertex="1" parent="1">
          <mxGeometry x="-515" y="1940" width="110" height="50" as="geometry" />
        </mxCell>
        <mxCell id="0SsIEOhFhzTk_DGAFsbN-143" value="CropperView" style="whiteSpace=wrap;html=1;rounded=0;fillColor=#dae8fc;strokeColor=#6c8ebf;" vertex="1" parent="1">
          <mxGeometry x="-265" y="1940" width="110" height="50" as="geometry" />
        </mxCell>
        <mxCell id="0SsIEOhFhzTk_DGAFsbN-145" value="CameraView" style="whiteSpace=wrap;html=1;rounded=0;fillColor=#dae8fc;strokeColor=#6c8ebf;" vertex="1" parent="1">
          <mxGeometry x="-630" y="1940" width="100" height="50" as="geometry" />
        </mxCell>
        <mxCell id="0SsIEOhFhzTk_DGAFsbN-147" value="CameraView" style="whiteSpace=wrap;html=1;rounded=0;fillColor=#dae8fc;strokeColor=#6c8ebf;" vertex="1" parent="1">
          <mxGeometry x="-385" y="1940" width="100" height="50" as="geometry" />
        </mxCell>
        <mxCell id="0SsIEOhFhzTk_DGAFsbN-156" value="DeckView" style="whiteSpace=wrap;html=1;rounded=0;fillColor=#dae8fc;strokeColor=#6c8ebf;" vertex="1" parent="1">
          <mxGeometry x="1040" y="1520" width="120" height="50" as="geometry" />
        </mxCell>
        <mxCell id="0SsIEOhFhzTk_DGAFsbN-158" value="CardView" style="whiteSpace=wrap;html=1;rounded=0;fillColor=#dae8fc;strokeColor=#6c8ebf;" vertex="1" parent="1">
          <mxGeometry x="250" y="1670" width="120" height="50" as="geometry" />
        </mxCell>
        <mxCell id="0SsIEOhFhzTk_DGAFsbN-161" value="Capsule" style="whiteSpace=wrap;html=1;rounded=0;fillColor=#dae8fc;strokeColor=#6c8ebf;" vertex="1" parent="1">
          <mxGeometry x="100" y="1670" width="120" height="50" as="geometry" />
        </mxCell>
        <mxCell id="0SsIEOhFhzTk_DGAFsbN-164" style="edgeStyle=none;curved=1;rounded=0;orthogonalLoop=1;jettySize=auto;html=1;exitX=0.5;exitY=1;exitDx=0;exitDy=0;entryX=0.623;entryY=0.009;entryDx=0;entryDy=0;entryPerimeter=0;fontSize=12;startSize=8;endSize=8;fillColor=#dae8fc;strokeColor=#6c8ebf;" edge="1" parent="1" source="0SsIEOhFhzTk_DGAFsbN-64" target="0SsIEOhFhzTk_DGAFsbN-156">
          <mxGeometry relative="1" as="geometry" />
        </mxCell>
        <mxCell id="0SsIEOhFhzTk_DGAFsbN-165" value="QrCodeView" style="whiteSpace=wrap;html=1;rounded=0;fillColor=#dae8fc;strokeColor=#6c8ebf;" vertex="1" parent="1">
          <mxGeometry x="690" y="1525" width="120" height="50" as="geometry" />
        </mxCell>
        <mxCell id="0SsIEOhFhzTk_DGAFsbN-167" value="LabelView" style="whiteSpace=wrap;html=1;rounded=0;fillColor=#dae8fc;strokeColor=#6c8ebf;" vertex="1" parent="1">
          <mxGeometry x="860" y="1525" width="120" height="50" as="geometry" />
        </mxCell>
        <mxCell id="0SsIEOhFhzTk_DGAFsbN-170" value="DeckView" style="whiteSpace=wrap;html=1;rounded=0;fillColor=#dae8fc;strokeColor=#6c8ebf;" vertex="1" parent="1">
          <mxGeometry x="1380" y="1520" width="120" height="50" as="geometry" />
        </mxCell>
      </root>
    </mxGraphModel>
  </diagram>
</mxfile>
